<svg width="3443" height="2118" viewBox="0 0 3443 2118" fill="none" xmlns="http://www.w3.org/2000/svg">
<path d="M1048.55 1070.57C991.629 1070.57 940.599 1064.71 887.605 1047.14C834.612 1029.57 793.395 1000.29 765.918 965.143C738.44 931.952 716.85 889 708.999 826.524H836.575C848.351 894.857 881.717 939.762 915.083 961.238C962.188 990.524 997.517 1002.24 1066.21 1002.24C1172.2 1002.24 1221.27 937.809 1221.27 873.381C1221.27 851.905 1215.38 830.428 1201.64 810.905C1189.86 793.333 1172.2 777.714 1150.61 767.952C1129.02 756.238 1099.58 746.476 1062.29 738.666L956.3 717.19C887.605 703.524 832.65 678.143 793.395 643C754.141 607.857 736.477 564.905 736.477 508.286C736.477 467.286 748.253 430.19 775.731 397C801.246 365.762 838.538 340.381 883.68 322.809C930.785 303.286 979.853 297.428 1032.85 297.428C1077.99 297.428 1123.13 303.286 1168.27 318.905C1211.45 334.524 1246.78 357.952 1276.22 387.238C1305.66 418.476 1325.29 453.619 1337.07 498.524H1213.42C1203.6 449.714 1189.86 418.476 1148.65 391.143C1119.21 371.619 1081.91 359.905 1025 359.905C975.927 359.905 920.972 375.524 889.568 420.428C877.792 438 869.941 459.476 869.941 486.809C869.941 533.666 897.419 564.905 942.561 578.571C962.188 586.381 987.704 592.238 1023.03 600.047L1127.06 621.524C1205.56 637.143 1262.48 664.476 1301.74 699.619C1339.03 734.762 1358.66 783.571 1358.66 840.19C1358.66 892.905 1342.95 937.809 1313.51 971C1284.07 1006.14 1246.78 1027.62 1205.56 1045.19C1160.42 1064.71 1109.39 1070.57 1048.55 1070.57ZM1802.23 971C1849.33 971 1888.59 959.285 1923.92 935.857C1957.28 912.428 1982.8 879.238 2000.46 836.285C2018.13 793.333 2027.94 742.571 2027.94 684C2027.94 625.428 2018.13 574.666 2000.46 531.714C1982.8 488.762 1957.28 455.571 1923.92 432.143C1888.59 408.714 1849.33 397 1802.23 397C1755.12 397 1713.91 408.714 1680.54 432.143C1647.17 455.571 1621.66 488.762 1603.99 531.714C1586.33 574.666 1576.52 625.428 1576.52 684C1576.52 742.571 1586.33 793.333 1603.99 836.285C1621.66 879.238 1647.17 912.428 1680.54 935.857C1713.91 959.285 1755.12 971 1802.23 971ZM2022.05 311.095H2159.44V1367.33H2022.05V892.905C2006.35 928.047 1984.76 959.285 1957.28 986.619C1929.8 1013.95 1900.36 1035.43 1865.03 1049.09C1829.71 1064.71 1794.38 1070.57 1757.09 1070.57C1696.24 1070.57 1641.29 1054.95 1592.22 1021.76C1543.15 988.571 1505.86 943.666 1478.38 885.095C1450.9 826.524 1437.16 758.19 1437.16 684C1437.16 609.809 1450.9 541.476 1478.38 482.905C1505.86 424.333 1545.11 379.428 1594.18 346.238C1643.25 313.047 1696.24 297.428 1757.09 297.428C1802.23 297.428 1841.48 305.238 1876.81 322.809C1912.14 342.333 1943.54 365.762 1967.1 395.047C1990.65 424.333 2010.27 457.524 2022.05 492.666V311.095ZM2434.22 1056.9H2296.83V0.666504H2434.22V1056.9ZM2709 176.381H2571.61V0.666504H2709V176.381ZM2709 1056.9H2571.61V311.095H2709V1056.9Z" fill="#FFFAF0"/>
</svg>
