<svg width="3442" height="2118" viewBox="0 0 3442 2118" fill="none" xmlns="http://www.w3.org/2000/svg">
<path d="M1047.88 1070.57C990.963 1070.57 939.933 1064.71 886.939 1047.14C833.946 1029.57 792.729 1000.29 765.252 965.143C737.774 931.952 716.184 889 708.333 826.524H835.909C847.685 894.857 881.051 939.762 914.417 961.238C961.522 990.524 996.851 1002.24 1065.55 1002.24C1171.53 1002.24 1220.6 937.809 1220.6 873.381C1220.6 851.905 1214.71 830.428 1200.97 810.905C1189.2 793.333 1171.53 777.714 1149.94 767.952C1128.35 756.238 1098.91 746.476 1061.62 738.666L955.634 717.19C886.939 703.524 831.984 678.143 792.729 643C753.475 607.857 735.811 564.905 735.811 508.286C735.811 467.286 747.587 430.19 775.065 397C800.58 365.762 837.872 340.381 883.014 322.809C930.119 303.286 979.187 297.428 1032.18 297.428C1077.32 297.428 1122.46 303.286 1167.61 318.905C1210.79 334.524 1246.12 357.952 1275.56 387.238C1305 418.476 1324.62 453.619 1336.4 498.524H1212.75C1202.94 449.714 1189.2 418.476 1147.98 391.143C1118.54 371.619 1081.25 359.905 1024.33 359.905C975.261 359.905 920.305 375.524 888.902 420.428C877.126 438 869.275 459.476 869.275 486.809C869.275 533.666 896.753 564.905 941.895 578.571C961.522 586.381 987.038 592.238 1022.37 600.047L1126.39 621.524C1204.9 637.143 1261.82 664.476 1301.07 699.619C1338.36 734.762 1357.99 783.571 1357.99 840.19C1357.99 892.905 1342.29 937.809 1312.85 971C1283.41 1006.14 1246.12 1027.62 1204.9 1045.19C1159.76 1064.71 1108.73 1070.57 1047.88 1070.57ZM1801.56 971C1848.67 971 1887.92 959.285 1923.25 935.857C1956.62 912.428 1982.13 879.238 1999.8 836.285C2017.46 793.333 2027.27 742.571 2027.27 684C2027.27 625.428 2017.46 574.666 1999.8 531.714C1982.13 488.762 1956.62 455.571 1923.25 432.143C1887.92 408.714 1848.67 397 1801.56 397C1754.46 397 1713.24 408.714 1679.87 432.143C1646.51 455.571 1620.99 488.762 1603.33 531.714C1585.66 574.666 1575.85 625.428 1575.85 684C1575.85 742.571 1585.66 793.333 1603.33 836.285C1620.99 879.238 1646.51 912.428 1679.87 935.857C1713.24 959.285 1754.46 971 1801.56 971ZM2021.38 311.095H2158.77V1367.33H2021.38V892.905C2005.68 928.047 1984.09 959.285 1956.62 986.619C1929.14 1013.95 1899.7 1035.43 1864.37 1049.09C1829.04 1064.71 1793.71 1070.57 1756.42 1070.57C1695.58 1070.57 1640.62 1054.95 1591.55 1021.76C1542.48 988.571 1505.19 943.666 1477.71 885.095C1450.24 826.524 1436.5 758.19 1436.5 684C1436.5 609.809 1450.24 541.476 1477.71 482.905C1505.19 424.333 1544.45 379.428 1593.51 346.238C1642.58 313.047 1695.58 297.428 1756.42 297.428C1801.56 297.428 1840.82 305.238 1876.14 322.809C1911.47 342.333 1942.88 365.762 1966.43 395.047C1989.98 424.333 2009.61 457.524 2021.38 492.666V311.095ZM2433.55 1056.9H2296.16V0.666504H2433.55V1056.9ZM2708.33 176.381H2570.94V0.666504H2708.33V176.381ZM2708.33 1056.9H2570.94V311.095H2708.33V1056.9Z" fill="#0F0E2B"/>
</svg>
