<svg width="2002" height="1372" viewBox="0 0 2002 1372" fill="none" xmlns="http://www.w3.org/2000/svg">
<path d="M342.166 1074.18C285.278 1074.18 234.275 1068.31 181.31 1050.68C128.345 1033.05 87.1506 1003.66 59.6874 968.4C32.2242 935.097 10.646 892 2.79932 829.313H130.307C142.077 897.877 175.425 942.933 208.773 964.482C255.853 993.866 291.163 1005.62 359.821 1005.62C465.751 1005.62 514.792 940.974 514.792 876.328C514.792 854.779 508.907 833.231 495.176 813.641C483.406 796.01 465.751 780.338 444.172 770.543C422.594 758.789 393.169 748.995 355.898 741.159L249.968 719.61C181.31 705.897 126.384 680.431 87.1506 645.169C47.9174 609.907 30.2625 566.81 30.2625 510C30.2625 468.861 42.0325 431.641 69.4957 398.338C94.9973 366.995 132.269 341.528 177.387 323.897C224.467 304.307 273.508 298.431 326.473 298.431C371.591 298.431 416.709 304.307 461.827 319.979C504.984 335.651 540.294 359.159 569.719 388.543C599.144 419.887 618.76 455.149 630.53 500.205H506.946C497.137 451.231 483.406 419.887 442.211 392.461C412.786 372.872 375.514 361.118 318.626 361.118C269.585 361.118 214.658 376.79 183.272 421.846C171.502 439.477 163.655 461.025 163.655 488.451C163.655 535.466 191.119 566.81 236.237 580.523C255.853 588.359 281.355 594.236 316.665 602.072L420.633 623.62C499.099 639.292 555.987 666.718 595.22 701.979C632.492 737.241 652.108 786.215 652.108 843.025C652.108 895.918 636.415 940.974 606.99 974.277C577.565 1009.54 540.294 1031.09 499.099 1048.72C453.981 1068.31 402.978 1074.18 342.166 1074.18ZM1095.44 974.277C1142.52 974.277 1181.76 962.523 1217.07 939.015C1250.41 915.507 1275.92 882.205 1293.57 839.107C1311.23 796.01 1321.03 745.077 1321.03 686.307C1321.03 627.538 1311.23 576.605 1293.57 533.507C1275.92 490.41 1250.41 457.107 1217.07 433.6C1181.76 410.092 1142.52 398.338 1095.44 398.338C1048.36 398.338 1007.17 410.092 973.82 433.6C940.472 457.107 914.971 490.41 897.316 533.507C879.661 576.605 869.852 627.538 869.852 686.307C869.852 745.077 879.661 796.01 897.316 839.107C914.971 882.205 940.472 915.507 973.82 939.015C1007.17 962.523 1048.36 974.277 1095.44 974.277ZM1315.15 312.143H1452.47V1371.95H1315.15V895.918C1299.46 931.179 1277.88 962.523 1250.41 989.948C1222.95 1017.37 1193.53 1038.92 1158.22 1052.64C1122.91 1068.31 1087.6 1074.18 1050.33 1074.18C989.514 1074.18 934.587 1058.51 885.546 1025.21C836.504 991.907 799.233 946.851 771.769 888.082C744.306 829.313 730.575 760.748 730.575 686.307C730.575 611.866 744.306 543.302 771.769 484.533C799.233 425.764 838.466 380.707 887.507 347.405C936.549 314.102 989.514 298.431 1050.33 298.431C1095.44 298.431 1134.68 306.266 1169.99 323.897C1205.3 343.487 1236.68 366.995 1260.22 396.379C1283.76 425.764 1303.38 459.066 1315.15 494.328V312.143ZM1727.1 1060.47H1589.78V0.666504H1727.1V1060.47ZM2001.73 176.974H1864.41V0.666504H2001.73V176.974ZM2001.73 1060.47H1864.41V312.143H2001.73V1060.47Z" fill="#0F0E2B"/>
</svg>
