<svg width="2002" height="1372" viewBox="0 0 2002 1372" fill="none" xmlns="http://www.w3.org/2000/svg">
<path d="M342.167 1074.18C285.279 1074.18 234.275 1068.31 181.311 1050.68C128.346 1033.05 87.1511 1003.66 59.6879 968.4C32.2247 935.097 10.6464 892 2.7998 829.313H130.308C142.078 897.877 175.426 942.933 208.774 964.482C255.854 993.866 291.164 1005.62 359.822 1005.62C465.751 1005.62 514.793 940.974 514.793 876.328C514.793 854.779 508.908 833.231 495.176 813.641C483.406 796.01 465.751 780.338 444.173 770.543C422.595 758.789 393.17 748.995 355.898 741.159L249.969 719.61C181.311 705.897 126.384 680.431 87.1511 645.169C47.9179 609.907 30.263 566.81 30.263 510C30.263 468.861 42.033 431.641 69.4962 398.338C94.9978 366.995 132.269 341.528 177.387 323.897C224.467 304.307 273.509 298.431 326.473 298.431C371.592 298.431 416.71 304.307 461.828 319.979C504.984 335.651 540.294 359.159 569.719 388.543C599.144 419.887 618.761 455.149 630.531 500.205H506.946C497.138 451.231 483.406 419.887 442.211 392.461C412.786 372.872 375.515 361.118 318.627 361.118C269.585 361.118 214.659 376.79 183.272 421.846C171.502 439.477 163.656 461.025 163.656 488.451C163.656 535.466 191.119 566.81 236.237 580.523C255.854 588.359 281.355 594.236 316.665 602.072L420.633 623.62C499.099 639.292 555.988 666.718 595.221 701.979C632.492 737.241 652.109 786.215 652.109 843.025C652.109 895.918 636.416 940.974 606.991 974.277C577.566 1009.54 540.294 1031.09 499.099 1048.72C453.981 1068.31 402.978 1074.18 342.167 1074.18ZM1095.44 974.277C1142.52 974.277 1181.76 962.523 1217.07 939.015C1250.41 915.507 1275.92 882.205 1293.57 839.107C1311.23 796.01 1321.03 745.077 1321.03 686.307C1321.03 627.538 1311.23 576.605 1293.57 533.507C1275.92 490.41 1250.41 457.107 1217.07 433.6C1181.76 410.092 1142.52 398.338 1095.44 398.338C1048.36 398.338 1007.17 410.092 973.821 433.6C940.473 457.107 914.971 490.41 897.316 533.507C879.661 576.605 869.853 627.538 869.853 686.307C869.853 745.077 879.661 796.01 897.316 839.107C914.971 882.205 940.473 915.507 973.821 939.015C1007.17 962.523 1048.36 974.277 1095.44 974.277ZM1315.15 312.143H1452.47V1371.95H1315.15V895.918C1299.46 931.179 1277.88 962.523 1250.41 989.948C1222.95 1017.37 1193.53 1038.92 1158.22 1052.64C1122.91 1068.31 1087.6 1074.18 1050.33 1074.18C989.514 1074.18 934.588 1058.51 885.546 1025.21C836.505 991.907 799.233 946.851 771.77 888.082C744.307 829.313 730.575 760.748 730.575 686.307C730.575 611.866 744.307 543.302 771.77 484.533C799.233 425.764 838.466 380.707 887.508 347.405C936.549 314.102 989.514 298.431 1050.33 298.431C1095.44 298.431 1134.68 306.266 1169.99 323.897C1205.3 343.487 1236.68 366.995 1260.22 396.379C1283.76 425.764 1303.38 459.066 1315.15 494.328V312.143ZM1727.1 1060.47H1589.78V0.666504H1727.1V1060.47ZM2001.73 176.974H1864.41V0.666504H2001.73V176.974ZM2001.73 1060.47H1864.41V312.143H2001.73V1060.47Z" fill="#FFFAF0"/>
</svg>
